<svg xmlns="http://www.w3.org/2000/svg" width="148" height="148" viewBox="0 0 148 148"><g id="Icons"><rect x="0.88" y="29" width="146.25" height="90" rx="45" fill="#333"/><path d="M57.51,36.07A40.51,40.51,0,0,1,71.75,33.5" fill="none" stroke="#f2f0f1" stroke-miterlimit="10"/><path d="M71.75,114.5A40.5,40.5,0,0,1,31.25,74h0A40.47,40.47,0,0,1,50.87,39.29l.63-.37" fill="none" stroke="#f2f0f1" stroke-miterlimit="10"/><path d="M76.25,114.5A40.5,40.5,0,0,0,116.75,74h0a40.5,40.5,0,0,0-40.5-40.5" fill="none" stroke="#f2f0f1" stroke-miterlimit="10"/><rect x="5.38" y="33.5" width="137.25" height="81" rx="40.5" fill="none" stroke="#f2f0f1" stroke-miterlimit="10"/><path d="M52.82,38.18c1-.54,2.08-1,3.15-1.49" fill="none" stroke="#f2f0f1" stroke-miterlimit="10"/><path d="M72,74.47c0,13.3-2.72,24.08-12.71,24.08s-14-10.78-14-24.08,4.06-24.09,14-24.09S72,61.17,72,74.47Z" fill="#333" stroke="#f2f0f1" stroke-miterlimit="10"/><ellipse cx="67.31" cy="75.13" rx="12.71" ry="24.08" fill="#333" stroke="#f2f0f1" stroke-miterlimit="10"/><path d="M76,74.47c0,13.3,2.72,24.08,12.71,24.08s14-10.78,14-24.08-4.06-24.09-14-24.09S76,61.17,76,74.47Z" fill="#333" stroke="#f2f0f1" stroke-miterlimit="10"/><ellipse cx="80.69" cy="75.13" rx="12.71" ry="24.08" fill="#333" stroke="#f2f0f1" stroke-miterlimit="10"/><ellipse cx="74" cy="75.8" rx="8.7" ry="24.08" fill="#333" stroke="#f2f0f1" stroke-miterlimit="10"/><polyline points="71.75 52.07 72.59 44.74 75.41 44.74 76.25 52.07" fill="none" stroke="#f2f0f1" stroke-miterlimit="10"/><path d="M19,55a7,7,0,0,0,2.45,9.84l.13.12a7.39,7.39,0,0,0,5.22,9v0a7.39,7.39,0,0,0-5.22,9l-.13.12A7,7,0,0,0,19,93" fill="none" stroke="#f2f0f1" stroke-miterlimit="10"/><path d="M19,54.93c-4.12,4.12-5.85,11.56-2.37,16.57H11.25l1.5,1.75v1.5l-1.5,1.75h5.38C13.15,81.51,14.88,89,19,93.07" fill="none" stroke="#f2f0f1" stroke-miterlimit="10"/><path d="M129.05,55a7,7,0,0,1-2.45,9.84l-.13.12a7.39,7.39,0,0,1-5.22,9v0a7.39,7.39,0,0,1,5.22,9l.13.12A7,7,0,0,1,129.05,93" fill="none" stroke="#f2f0f1" stroke-miterlimit="10"/><path d="M129,54.93c4.12,4.12,5.85,11.56,2.37,16.57h5.38l-1.5,1.75v1.5l1.5,1.75h-5.38c3.48,5,1.75,12.45-2.37,16.57" fill="none" stroke="#f2f0f1" stroke-miterlimit="10"/><circle cx="28.19" cy="50.88" r="1.5" fill="none" stroke="#f2f0f1" stroke-miterlimit="10"/><circle cx="32.69" cy="45.38" r="1" fill="#f2f0f1"/><circle cx="28" cy="99" r="1.5" fill="#f2f0f1"/><circle cx="120" cy="96" r="1.5" fill="none" stroke="#f2f0f1" stroke-miterlimit="10"/><circle cx="115.5" cy="101.5" r="1" fill="#f2f0f1"/><circle cx="120.19" cy="47.88" r="1.5" fill="#f2f0f1"/></g></svg>