<svg xmlns="http://www.w3.org/2000/svg" width="148" height="148" viewBox="0 0 148 148"><g id="Icons"><rect x="9" y="34" width="130" height="80" rx="40" transform="translate(0 148) rotate(-90)" fill="#333"/><rect x="13.85" y="38.5" width="120.31" height="71" rx="35.5" transform="translate(0 148) rotate(-90)" fill="none" stroke="#edf3f4" stroke-miterlimit="10"/><path d="M80.56,72.35a7.06,7.06,0,0,1-14.12,0c0-3.9,7.06-13.84,7.06-13.84S80.56,68.45,80.56,72.35Z" fill="#333" stroke="#edf3f4" stroke-miterlimit="10"/><path d="M77.32,75.59a3.82,3.82,0,0,1-7.64,0c0-2.12,3.82-7.5,3.82-7.5S77.32,73.47,77.32,75.59Z" fill="#333" stroke="#edf3f4" stroke-miterlimit="10"/><line x1="73.5" y1="74.21" x2="73.5" y2="83.79" fill="none" stroke="#edf3f4" stroke-miterlimit="10"/><path d="M67.47,113.27v-26a2.68,2.68,0,0,1,2.68-2.68h7.7a2.68,2.68,0,0,1,2.68,2.68v26" fill="none" stroke="#edf3f4" stroke-miterlimit="10"/><path d="M85.5,121.5h-23L57.21,115a.9.9,0,0,1,.69-1.48H90.1a.9.9,0,0,1,.69,1.48Z" fill="#333" stroke="#edf3f4" stroke-miterlimit="10"/><line x1="73.5" y1="34.23" x2="73.5" y2="45.77" fill="none" stroke="#edf3f4" stroke-miterlimit="10"/><line x1="68.5" y1="37.11" x2="78.5" y2="42.89" fill="none" stroke="#edf3f4" stroke-miterlimit="10"/><line x1="68.5" y1="42.89" x2="78.5" y2="37.11" fill="none" stroke="#edf3f4" stroke-miterlimit="10"/><path d="M83.84,24.34a25.38,25.38,0,0,0-9.84-2h0a25.38,25.38,0,0,0-9.84,2" fill="none" stroke="#edf3f4" stroke-miterlimit="10"/><path d="M62.37,25.18a24.91,24.91,0,0,0-3.13,1.91" fill="none" stroke="#edf3f4" stroke-miterlimit="10"/><path d="M88.76,27.09a24.91,24.91,0,0,0-3.13-1.91" fill="none" stroke="#edf3f4" stroke-miterlimit="10"/><path d="M99.5,104V47.87a25.41,25.41,0,0,0-9-19.39" fill="none" stroke="#edf3f4" stroke-miterlimit="10"/><path d="M57.45,28.48a25.41,25.41,0,0,0-9,19.39V104" fill="none" stroke="#edf3f4" stroke-miterlimit="10"/><path d="M80.67,92.22a4,4,0,0,1-6.65,0h0a4,4,0,0,0-6.65,0" fill="none" stroke="#edf3f4" stroke-miterlimit="10"/></g></svg>