<svg xmlns="http://www.w3.org/2000/svg" xmlns:xlink="http://www.w3.org/1999/xlink" width="148" height="148" viewBox="0 0 148 148"><defs><clipPath id="clip-path"><rect x="25" y="94" width="66" height="30" fill="none"/></clipPath></defs><g id="Icons"><rect x="20.5" y="20.5" width="108" height="108" fill="#333" stroke="#333" stroke-miterlimit="10"/><polyline points="113 124.5 24.5 124.5 24.5 38" fill="none" stroke="#f2f1f0" stroke-miterlimit="10"/><polyline points="36 24.5 124.5 24.5 124.5 111" fill="none" stroke="#f2f1f0" stroke-miterlimit="10"/><polyline points="24.5 28 24.5 24.5 28 24.5" fill="none" stroke="#f2f1f0" stroke-miterlimit="10"/><line x1="24.5" y1="36" x2="24.5" y2="30" fill="none" stroke="#f2f1f0" stroke-miterlimit="10"/><line x1="34" y1="24.5" x2="30" y2="24.5" fill="none" stroke="#f2f1f0" stroke-miterlimit="10"/><polyline points="124.5 121 124.5 124.5 121 124.5" fill="none" stroke="#f2f1f0" stroke-miterlimit="10"/><line x1="124.5" y1="113" x2="124.5" y2="119" fill="none" stroke="#f2f1f0" stroke-miterlimit="10"/><line x1="115" y1="124.5" x2="119" y2="124.5" fill="none" stroke="#f2f1f0" stroke-miterlimit="10"/><path d="M108.5,40.54c1.22,1.51,3,4.15,3,6.26,0,2.26-2.11,3.61-3,4.08-.88-.47-3-1.82-3-4.08,0-2.11,1.77-4.75,3-6.26m0-1.54s-4,4.21-4,7.8,4,5.2,4,5.2,4-1.61,4-5.2-4-7.8-4-7.8Z" fill="#f2f1f0"/><line x1="108.5" y1="51.5" x2="108.5" y2="117" fill="none" stroke="#f2f1f0" stroke-miterlimit="10"/><line x1="108.5" y1="32" x2="108.5" y2="39.5" fill="none" stroke="#f2f1f0" stroke-miterlimit="10"/><path d="M116.5,35V85a8,8,0,0,1-8,8h0a8,8,0,0,1-8-8V35" fill="none" stroke="#f2f1f0" stroke-miterlimit="10"/><polyline points="116.5 44 108.5 52 100.5 44" fill="none" stroke="#f2f1f0" stroke-miterlimit="10"/><polyline points="116.5 52.5 108.5 60.5 100.5 52.5" fill="none" stroke="#f2f1f0" stroke-miterlimit="10"/><polyline points="116.5 61 108.5 69 100.5 61" fill="none" stroke="#f2f1f0" stroke-miterlimit="10"/><polyline points="116.5 69.5 108.5 77.5 100.5 69.5" fill="none" stroke="#f2f1f0" stroke-miterlimit="10"/><polyline points="116.5 78 108.5 86 100.5 78" fill="none" stroke="#f2f1f0" stroke-miterlimit="10"/><line x1="92.5" y1="24.5" x2="92.5" y2="124.5" fill="none" stroke="#f2f1f0" stroke-miterlimit="10"/><line x1="25" y1="93.5" x2="92.5" y2="93.5" fill="none" stroke="#f2f1f0" stroke-miterlimit="10"/><line x1="84.5" y1="124" x2="84.5" y2="94" fill="none" stroke="#f2f1f0" stroke-miterlimit="10"/><line x1="76.5" y1="122.5" x2="76.5" y2="94" fill="none" stroke="#f2f1f0" stroke-miterlimit="10"/><line x1="68.5" y1="111" x2="68.5" y2="93.5" fill="none" stroke="#f2f1f0" stroke-miterlimit="10"/><line x1="60.5" y1="100" x2="60.5" y2="94" fill="none" stroke="#f2f1f0" stroke-miterlimit="10"/><g clip-path="url(#clip-path)"><line x1="-22.09" y1="39.68" x2="63.09" y2="161.32" fill="none" stroke="#f2f1f0" stroke-miterlimit="10"/><line x1="-13.89" y1="39.68" x2="71.29" y2="161.32" fill="none" stroke="#f2f1f0" stroke-miterlimit="10"/><line x1="-5.69" y1="39.68" x2="79.49" y2="161.32" fill="none" stroke="#f2f1f0" stroke-miterlimit="10"/><line x1="2.51" y1="39.68" x2="87.69" y2="161.32" fill="none" stroke="#f2f1f0" stroke-miterlimit="10"/><line x1="10.71" y1="39.68" x2="95.89" y2="161.32" fill="none" stroke="#f2f1f0" stroke-miterlimit="10"/><line x1="18.91" y1="39.68" x2="104.09" y2="161.32" fill="none" stroke="#f2f1f0" stroke-miterlimit="10"/></g><path d="M63.48,53a5.15,5.15,0,0,0-5.2-4.54H40.72A5.15,5.15,0,0,0,35.52,53a5,5,0,0,0,3,5V75.5a1,1,0,0,0,1,1h20a1,1,0,0,0,1-1V58.08A5,5,0,0,0,63.48,53Z" fill="none" stroke="#f2f1f0" stroke-miterlimit="10"/><path d="M56.11,42.75a5.42,5.42,0,0,1,1.61-.25H75.28A5.15,5.15,0,0,1,80.48,47a5,5,0,0,1-3,5V68.82a1,1,0,0,1-.64.93l-16.61,6.5" fill="none" stroke="#f2f1f0" stroke-miterlimit="10"/><line x1="77.5" y1="52.08" x2="60.5" y2="58.08" fill="none" stroke="#f2f1f0" stroke-miterlimit="10"/><line x1="56.35" y1="42.65" x2="39.25" y2="48.7" fill="none" stroke="#f2f1f0" stroke-miterlimit="10"/><circle cx="51.5" cy="57.5" r="1.5" fill="#f2f1f0"/><circle cx="46" cy="66" r="1.5" fill="none" stroke="#f2f1f0" stroke-miterlimit="10"/></g></svg>