<svg xmlns="http://www.w3.org/2000/svg" width="148" height="148" viewBox="0 0 148 148"><g id="Icons"><polygon points="74.5 29 12.5 119 136.5 119 74.5 29" fill="#333"/><line x1="109.71" y1="106.71" x2="96.29" y2="86.71" fill="none" stroke="#f2f2f0" stroke-miterlimit="10"/><line x1="38.29" y1="106.71" x2="51.71" y2="86.71" fill="none" stroke="#f2f2f0" stroke-miterlimit="10"/><path d="M83,68.66s-1.41,2.1-3,4.74A111.57,111.57,0,0,0,74,63.11,111.57,111.57,0,0,0,67.92,73.4c-1.54-2.64-3-4.74-3-4.74s-6.86,10.2-6.86,14a6.85,6.85,0,0,0,11.08,5.4,8.65,8.65,0,0,0,9.62,0,6.85,6.85,0,0,0,11.08-5.4C89.89,78.86,83,68.66,83,68.66Z" fill="#333" stroke="#f2f2f0" stroke-miterlimit="10"/><rect x="57.5" y="83.61" width="5" height="21" transform="translate(64.91 205.6) rotate(-150)" fill="#333" stroke="#f2f2f0" stroke-miterlimit="10"/><rect x="85.5" y="83.61" width="5" height="21" transform="translate(-35.26 56.61) rotate(-30)" fill="#333" stroke="#f2f2f0" stroke-miterlimit="10"/><rect x="78.5" y="83.61" width="5" height="21" transform="translate(-21.6 24.17) rotate(-15)" fill="#333" stroke="#f2f2f0" stroke-miterlimit="10"/><rect x="64.5" y="83.61" width="5" height="21" transform="translate(107.36 202.35) rotate(-165)" fill="#333" stroke="#f2f2f0" stroke-miterlimit="10"/><rect x="71.5" y="83.61" width="5" height="21" fill="#333" stroke="#f2f2f0" stroke-miterlimit="10"/><ellipse cx="69.48" cy="58.87" rx="1.23" ry="1.35" fill="none" stroke="#f2f2f0" stroke-miterlimit="10"/><ellipse cx="74" cy="53.9" rx="0.82" ry="0.9" fill="#f2f2f0"/><ellipse cx="79.18" cy="62.9" rx="0.82" ry="0.9" fill="#f2f2f0"/><polyline points="76.37 40.5 74.5 37.71 72.63 40.5" fill="none" stroke="#f2f2f0" stroke-miterlimit="10"/><polyline points="71.28 42.5 23.5 113.5 125.5 113.5 77.72 42.5" fill="none" stroke="#f2f2f0" stroke-miterlimit="10"/></g></svg>