<svg xmlns="http://www.w3.org/2000/svg" width="148" height="148" viewBox="0 0 148 148"><g id="Icons"><rect x="28.67" y="28.75" width="90.51" height="90.51" transform="translate(73.98 -30.6) rotate(45)" fill="#333" stroke="#333" stroke-miterlimit="10"/><polyline points="67.22 125.58 15.64 74 66.06 23.58" fill="none" stroke="#f2f2f5" stroke-miterlimit="10"/><polyline points="80.63 22.41 132.21 74 81.79 124.42" fill="none" stroke="#f2f2f5" stroke-miterlimit="10"/><polyline points="71.89 17.75 73.92 15.71 75.97 17.75" fill="none" stroke="#f2f2f5" stroke-miterlimit="10"/><line x1="67.22" y1="22.42" x2="70.72" y2="18.92" fill="none" stroke="#f2f2f5" stroke-miterlimit="10"/><line x1="79.46" y1="21.25" x2="77.13" y2="18.92" fill="none" stroke="#f2f2f5" stroke-miterlimit="10"/><polyline points="75.97 130.25 73.92 132.29 71.89 130.25" fill="none" stroke="#f2f2f5" stroke-miterlimit="10"/><line x1="80.63" y1="125.58" x2="77.13" y2="129.08" fill="none" stroke="#f2f2f5" stroke-miterlimit="10"/><line x1="68.39" y1="126.75" x2="70.72" y2="129.08" fill="none" stroke="#f2f2f5" stroke-miterlimit="10"/><polyline points="102.5 56.75 74 28.25 45.5 56.75" fill="none" stroke="#f2f2f5" stroke-miterlimit="10"/><path d="M31.12,71.62c1.63-1.14,5.21-1.84,6.35-.21a3.36,3.36,0,0,1,4-2.81c-1.14-1.62,0-4.22,1.58-5.36-1.63,1.14-4.44,1.28-5.58-.35a3.35,3.35,0,0,1-4,2.8c1.14,1.63-.74,4.76-2.37,5.9" fill="none" stroke="#f2f2f5"/><path d="M31.12,76.38c1.63,1.14,5.21,1.84,6.35.21a3.36,3.36,0,0,0,4,2.81c-1.14,1.62,0,4.22,1.58,5.36-1.63-1.14-4.44-1.28-5.58.35a3.35,3.35,0,0,0-4-2.8c1.14-1.63-.74-4.76-2.37-5.9" fill="none" stroke="#f2f2f5"/><circle cx="28.3" cy="74" r="2.25" fill="none" stroke="#f2f2f5" stroke-miterlimit="10"/><circle cx="31.44" cy="72.2" r="2.25" fill="#333" stroke="#f2f2f5" stroke-miterlimit="10"/><circle cx="31.44" cy="75.8" r="2.25" fill="#333" stroke="#f2f2f5" stroke-miterlimit="10"/><path d="M116.88,71.62c-1.63-1.14-5.21-1.84-6.35-.21a3.36,3.36,0,0,0-4-2.81c1.14-1.62,0-4.22-1.58-5.36,1.63,1.14,4.44,1.28,5.58-.35a3.35,3.35,0,0,0,4,2.8c-1.14,1.63.74,4.76,2.37,5.9" fill="none" stroke="#f2f2f5"/><path d="M116.88,76.38c-1.63,1.14-5.21,1.84-6.35.21a3.36,3.36,0,0,1-4,2.81c1.14,1.62,0,4.22-1.58,5.36,1.63-1.14,4.44-1.28,5.58.35a3.35,3.35,0,0,1,4-2.8c-1.14-1.63.74-4.76,2.37-5.9" fill="none" stroke="#f2f2f5"/><circle cx="119.7" cy="74" r="2.25" fill="none" stroke="#f2f2f5" stroke-miterlimit="10"/><circle cx="116.56" cy="72.2" r="2.25" fill="#333" stroke="#f2f2f5" stroke-miterlimit="10"/><circle cx="116.56" cy="75.8" r="2.25" fill="#333" stroke="#f2f2f5" stroke-miterlimit="10"/><path d="M83,53.56s-1.41,2.09-3,4.74A115.11,115.11,0,0,0,74,48a114,114,0,0,0-6.09,10.3c-1.54-2.65-3-4.74-3-4.74s-6.85,10.2-6.85,14a6.84,6.84,0,0,0,11.07,5.4,8.67,8.67,0,0,0,9.63,0,6.84,6.84,0,0,0,11.07-5.4C89.89,63.76,83,53.56,83,53.56Z" fill="#333" stroke="#f2f2f5" stroke-miterlimit="10"/><rect x="52.5" y="71.4" width="43" height="14" fill="#333" stroke="#f2f2f5" stroke-miterlimit="10"/><line x1="60.5" y1="75" x2="60.5" y2="92" fill="none" stroke="#f2f2f5" stroke-miterlimit="10"/><line x1="87.5" y1="75" x2="87.5" y2="92" fill="none" stroke="#f2f2f5" stroke-miterlimit="10"/><line x1="50" y1="91.4" x2="98" y2="91.4" fill="none" stroke="#f2f2f5" stroke-miterlimit="10"/><polyline points="52.75 98.5 74 119.75 95.25 98.5" fill="none" stroke="#f2f2f5" stroke-miterlimit="10"/></g></svg>