<svg xmlns="http://www.w3.org/2000/svg" width="148" height="148" viewBox="0 0 148 148"><g id="Icons"><rect x="19.5" y="19.5" width="109" height="109" transform="translate(148) rotate(90)" fill="#333" stroke="#333" stroke-miterlimit="10"/><rect x="24.5" y="24.5" width="99" height="99" fill="none" stroke="#f2f7f4" stroke-miterlimit="10"/><line x1="24" y1="46.5" x2="124" y2="46.5" fill="none" stroke="#f2f7f4" stroke-miterlimit="10"/><path d="M41.06,34.82a2.36,2.36,0,0,0,.6-.45,2.85,2.85,0,0,0-4-4,2.36,2.36,0,0,0-.45.6,2.84,2.84,0,1,0-1,4.9,2.85,2.85,0,1,0,4.9-1Z" fill="none" stroke="#f2f7f4" stroke-miterlimit="10"/><line x1="36.11" y1="35.89" x2="33.08" y2="38.92" fill="none" stroke="#f2f7f4" stroke-miterlimit="10"/><path d="M102.5,85.5l-8.12,23.93a6,6,0,0,1-5.68,4.07H59.3a6,6,0,0,1-5.68-4.07L45.5,85.5" fill="#333" stroke="#f2f7f4" stroke-miterlimit="10"/><line x1="74.5" y1="91" x2="74.5" y2="107" fill="none" stroke="#f2f7f4" stroke-miterlimit="10"/><line x1="59.93" y1="91.27" x2="64.07" y2="106.73" fill="none" stroke="#f2f7f4" stroke-miterlimit="10"/><line x1="88.07" y1="91.27" x2="83.93" y2="106.73" fill="none" stroke="#f2f7f4" stroke-miterlimit="10"/><line x1="92" y1="95.5" x2="57" y2="95.5" fill="none" stroke="#f2f7f4" stroke-miterlimit="10"/><line x1="88.5" y1="102.5" x2="59.5" y2="102.5" fill="none" stroke="#f2f7f4" stroke-miterlimit="10"/><rect x="42.5" y="79.5" width="63" height="6" rx="1" fill="#333" stroke="#f2f7f4" stroke-miterlimit="10"/><path d="M51,79.5a23,23,0,0,1,46,0" fill="none" stroke="#f2f7f4" stroke-miterlimit="10"/><path d="M55,79.5a19,19,0,0,1,38,0" fill="none" stroke="#f2f7f4" stroke-miterlimit="10"/><path d="M106.94,34.82a2.36,2.36,0,0,1-.6-.45,2.85,2.85,0,1,1,4-4,2.36,2.36,0,0,1,.45.6,2.84,2.84,0,1,1,1,4.9,2.85,2.85,0,1,1-4.9-1Z" fill="none" stroke="#f2f7f4" stroke-miterlimit="10"/><line x1="111.89" y1="35.89" x2="114.92" y2="38.92" fill="none" stroke="#f2f7f4" stroke-miterlimit="10"/><path d="M81,39A7,7,0,0,1,67,39c0-3.89,2.54-12,7-12S81,35.07,81,39Z" fill="none" stroke="#f2f7f4" stroke-miterlimit="10"/><path d="M81,39A7,7,0,0,1,67,39c0-3.89,2.54-12,7-12S81,35.07,81,39Z" fill="none" stroke="#f2f7f4" stroke-miterlimit="10"/><polyline points="67.63 35 70.27 38 72.92 35 75.57 38 78.22 35 80.88 38" fill="none" stroke="#f2f7f4" stroke-miterlimit="10"/><path d="M97,24c0,12.15-10.3,22-23,22S51,36.15,51,24" fill="none" stroke="#f2f7f4" stroke-miterlimit="10"/><rect x="57" y="120.5" width="34" height="5" fill="#333"/><line x1="66" y1="123.5" x2="82" y2="123.5" fill="none" stroke="#f2f7f4" stroke-miterlimit="10"/><line x1="59" y1="123.5" x2="64" y2="123.5" fill="none" stroke="#f2f7f4" stroke-miterlimit="10"/><line x1="84" y1="123.5" x2="89" y2="123.5" fill="none" stroke="#f2f7f4" stroke-miterlimit="10"/></g></svg>