<svg xmlns="http://www.w3.org/2000/svg" width="148" height="148" viewBox="0 0 148 148"><g id="Icons"><circle cx="74" cy="74" r="54" fill="#333"/><path d="M70.58,24.49c1.13-.08,2.27-.12,3.42-.11s2.3,0,3.43.11" fill="none" stroke="#f4f8f3" stroke-miterlimit="10"/><path d="M65,25.19c1.31-.24,2.65-.43,4-.57" fill="none" stroke="#f4f8f3" stroke-miterlimit="10"/><path d="M79,24.62c1.46.15,2.89.36,4.31.62" fill="none" stroke="#f4f8f3" stroke-miterlimit="10"/><path d="M85.42,25.44a49.75,49.75,0,1,1-22.84,0" fill="none" stroke="#f4f8f3" stroke-miterlimit="10"/><circle cx="74" cy="74.08" r="32" fill="none" stroke="#f4f8f3" stroke-miterlimit="10"/><path d="M108.1,48.48l-.63,3.69,3.84-.13-2,3.25,3.5,1.31-5.28,2.47a4.19,4.19,0,0,1-5.72-1.53h0a4.19,4.19,0,0,1,1.53-5.72Z" fill="#333" stroke="#f4f8f3" stroke-miterlimit="10"/><path d="M39.9,48.48l.63,3.69L36.69,52l2,3.25-3.5,1.31,5.28,2.47a4.19,4.19,0,0,0,5.72-1.53h0a4.19,4.19,0,0,0-1.53-5.72Z" fill="#333" stroke="#f4f8f3" stroke-miterlimit="10"/><path d="M81.59,33.77c0,3.35-3.4,6.07-7.59,6.07s-7.59-2.72-7.59-6.07" fill="#333" stroke="#f4f8f3" stroke-miterlimit="10"/><path d="M66.41,33.89a1.95,1.95,0,0,1,3.8,0" fill="#333" stroke="#f4f8f3" stroke-miterlimit="10"/><path d="M74,33.89a1.74,1.74,0,0,0-1.9-1.52,2.07,2.07,0,0,0-1.89,1.52c-.38.83-.38,4,1.13,5.57" fill="#333" stroke="#f4f8f3" stroke-miterlimit="10"/><path d="M74,33.89a1.74,1.74,0,0,1,1.9-1.52,2.07,2.07,0,0,1,1.89,1.52c.38.83.38,4-1.13,5.57" fill="#333" stroke="#f4f8f3" stroke-miterlimit="10"/><path d="M77.79,33.89a1.95,1.95,0,0,1,3.8,0" fill="#333" stroke="#f4f8f3" stroke-miterlimit="10"/><line x1="74" y1="33.2" x2="74" y2="40.03" fill="#333" stroke="#f4f8f3" stroke-miterlimit="10"/><polyline points="77.32 39.04 75.42 41.89 72.58 41.89 70.68 39.04" fill="none" stroke="#f4f8f3" stroke-miterlimit="10"/><path d="M98.12,45c2.09-1.26,2.58-4.43,2.58-4.43s-2.86-1.14-5,.12-2.57,4.43-2.57,4.43S96,46.25,98.12,45Z" fill="#333" stroke="#f4f8f3" stroke-miterlimit="10"/><path d="M93.11,39.12c0,2.49-2.43,4.51-2.43,4.51s-2.39-2-2.38-4.48,2.44-4.51,2.44-4.51S93.13,36.62,93.11,39.12Z" fill="#333" stroke="#f4f8f3" stroke-miterlimit="10"/><path d="M96,42.27c1.21-2.17.11-5.14.11-5.14s-3,.5-4.26,2.67-.12,5.14-.12,5.14S94.76,44.44,96,42.27Z" fill="#333" stroke="#f4f8f3" stroke-miterlimit="10"/><polygon points="89.29 42.34 89.49 45.94 91.98 47.42 95.1 45.8 89.29 42.34" fill="#333" stroke="#f4f8f3" stroke-miterlimit="10"/><path d="M49.88,45c-2.09-1.26-2.58-4.43-2.58-4.43s2.86-1.14,5,.12,2.57,4.43,2.57,4.43S52,46.25,49.88,45Z" fill="#333" stroke="#f4f8f3" stroke-miterlimit="10"/><path d="M54.89,39.12c0,2.49,2.43,4.51,2.43,4.51s2.39-2,2.38-4.48-2.44-4.51-2.44-4.51S54.87,36.62,54.89,39.12Z" fill="#333" stroke="#f4f8f3" stroke-miterlimit="10"/><path d="M52,42.27c-1.21-2.17-.11-5.14-.11-5.14s3,.5,4.26,2.67.12,5.14.12,5.14S53.24,44.44,52,42.27Z" fill="#333" stroke="#f4f8f3" stroke-miterlimit="10"/><polygon points="58.71 42.34 58.51 45.94 56.02 47.42 52.9 45.8 58.71 42.34" fill="#333" stroke="#f4f8f3" stroke-miterlimit="10"/><path d="M108.1,99.52l-.63-3.69,3.84.13-2-3.25,3.5-1.31-5.28-2.47a4.19,4.19,0,0,0-5.72,1.53h0a4.19,4.19,0,0,0,1.53,5.72Z" fill="#333" stroke="#f4f8f3" stroke-miterlimit="10"/><path d="M39.9,99.52l.63-3.69L36.69,96l2-3.25-3.5-1.31,5.28-2.47a4.19,4.19,0,0,1,5.72,1.53h0a4.19,4.19,0,0,1-1.53,5.72Z" fill="#333" stroke="#f4f8f3" stroke-miterlimit="10"/><path d="M81.59,114.23c0-3.35-3.4-6.07-7.59-6.07s-7.59,2.72-7.59,6.07" fill="#333" stroke="#f4f8f3" stroke-miterlimit="10"/><path d="M66.41,114.11a1.95,1.95,0,0,0,3.8,0" fill="#333" stroke="#f4f8f3" stroke-miterlimit="10"/><path d="M74,114.11a1.74,1.74,0,0,1-1.9,1.52,2.07,2.07,0,0,1-1.89-1.52c-.38-.83-.38-4,1.13-5.57" fill="#333" stroke="#f4f8f3" stroke-miterlimit="10"/><path d="M74,114.11a1.74,1.74,0,0,0,1.9,1.52,2.07,2.07,0,0,0,1.89-1.52c.38-.83.38-4-1.13-5.57" fill="#333" stroke="#f4f8f3" stroke-miterlimit="10"/><path d="M77.79,114.11a1.95,1.95,0,0,0,3.8,0" fill="#333" stroke="#f4f8f3" stroke-miterlimit="10"/><line x1="74" y1="114.8" x2="74" y2="107.97" fill="#333" stroke="#f4f8f3" stroke-miterlimit="10"/><polyline points="77.32 108.96 75.42 106.11 72.58 106.11 70.68 108.96" fill="none" stroke="#f4f8f3" stroke-miterlimit="10"/><path d="M98.12,103c2.09,1.26,2.58,4.43,2.58,4.43s-2.86,1.14-5-.12-2.57-4.43-2.57-4.43S96,101.75,98.12,103Z" fill="#333" stroke="#f4f8f3" stroke-miterlimit="10"/><path d="M93.11,108.88c0-2.49-2.43-4.51-2.43-4.51s-2.39,2-2.38,4.48,2.44,4.51,2.44,4.51S93.13,111.38,93.11,108.88Z" fill="#333" stroke="#f4f8f3" stroke-miterlimit="10"/><path d="M96,105.73c1.21,2.17.11,5.14.11,5.14s-3-.5-4.26-2.67-.12-5.14-.12-5.14S94.76,103.56,96,105.73Z" fill="#333" stroke="#f4f8f3" stroke-miterlimit="10"/><polygon points="89.29 105.66 89.49 102.06 91.98 100.58 95.1 102.2 89.29 105.66" fill="#333" stroke="#f4f8f3" stroke-miterlimit="10"/><path d="M49.88,103c-2.09,1.26-2.58,4.43-2.58,4.43s2.86,1.14,5-.12,2.57-4.43,2.57-4.43S52,101.75,49.88,103Z" fill="#333" stroke="#f4f8f3" stroke-miterlimit="10"/><path d="M54.89,108.88c0-2.49,2.43-4.51,2.43-4.51s2.39,2,2.38,4.48-2.44,4.51-2.44,4.51S54.87,111.38,54.89,108.88Z" fill="#333" stroke="#f4f8f3" stroke-miterlimit="10"/><path d="M52,105.73c-1.21,2.17-.11,5.14-.11,5.14s3-.5,4.26-2.67.12-5.14.12-5.14S53.24,103.56,52,105.73Z" fill="#333" stroke="#f4f8f3" stroke-miterlimit="10"/><polygon points="58.71 105.66 58.51 102.06 56.02 100.58 52.9 102.2 58.71 105.66" fill="#333" stroke="#f4f8f3" stroke-miterlimit="10"/><path d="M39.27,82.45c-1,2.21-4.14,3-4.14,3s-1.43-2.73-.4-4.94,4.13-3,4.13-3S40.3,80.24,39.27,82.45Z" fill="#333" stroke="#f4f8f3" stroke-miterlimit="10"/><path d="M39.17,65.34c-1.22-2.11-4.38-2.65-4.38-2.65s-1.19,2.84,0,5S39.2,70.3,39.2,70.3,40.4,67.46,39.17,65.34Z" fill="#333" stroke="#f4f8f3" stroke-miterlimit="10"/><path d="M31.72,65.08c4.38,0,7.93,4,7.93,8.91s-3.55,8.92-7.93,8.92" fill="#333" stroke="#f4f8f3" stroke-miterlimit="10"/><path d="M31.88,82.91a2.25,2.25,0,0,1,0-4.46" fill="#333" stroke="#f4f8f3" stroke-miterlimit="10"/><path d="M31.88,74a2.12,2.12,0,0,0-2,2.23c0,1.23,1,1.82,2,2.23s5.29.45,7.27-1.34" fill="#333" stroke="#f4f8f3" stroke-miterlimit="10"/><path d="M31.88,74a2.11,2.11,0,0,1-2-2.23c0-1.23,1-1.81,2-2.22s5.29-.45,7.27,1.33" fill="#333" stroke="#f4f8f3" stroke-miterlimit="10"/><path d="M31.88,69.54a2.25,2.25,0,0,1,0-4.46" fill="#333" stroke="#f4f8f3" stroke-miterlimit="10"/><line x1="30.98" y1="73.99" x2="39.9" y2="73.99" fill="#333" stroke="#f4f8f3" stroke-miterlimit="10"/><polyline points="38.91 70.67 41.76 72.57 41.76 75.42 38.91 77.31" fill="none" stroke="#f4f8f3" stroke-miterlimit="10"/><path d="M108.39,82.45c1,2.21,4.13,3,4.13,3s1.44-2.73.41-4.94-4.14-3-4.14-3S107.36,80.24,108.39,82.45Z" fill="#333" stroke="#f4f8f3" stroke-miterlimit="10"/><path d="M108.48,65.34c1.23-2.11,4.38-2.65,4.38-2.65s1.2,2.84,0,5-4.38,2.66-4.38,2.66S107.26,67.46,108.48,65.34Z" fill="#333" stroke="#f4f8f3" stroke-miterlimit="10"/><path d="M115.93,65.08c-4.37,0-7.92,4-7.92,8.91s3.55,8.92,7.92,8.92" fill="#333" stroke="#f4f8f3" stroke-miterlimit="10"/><path d="M115.78,82.91a2.25,2.25,0,0,0,0-4.46" fill="#333" stroke="#f4f8f3" stroke-miterlimit="10"/><path d="M115.78,74a2.12,2.12,0,0,1,2,2.23c0,1.23-1,1.82-2,2.23s-5.3.45-7.28-1.34" fill="#333" stroke="#f4f8f3" stroke-miterlimit="10"/><path d="M115.78,74a2.11,2.11,0,0,0,2-2.23c0-1.23-1-1.81-2-2.22s-5.3-.45-7.28,1.33" fill="#333" stroke="#f4f8f3" stroke-miterlimit="10"/><path d="M115.78,69.54a2.25,2.25,0,0,0,0-4.46" fill="#333" stroke="#f4f8f3" stroke-miterlimit="10"/><line x1="116.68" y1="73.99" x2="107.76" y2="73.99" fill="#333" stroke="#f4f8f3" stroke-miterlimit="10"/><polyline points="108.74 70.67 105.9 72.57 105.9 75.42 108.74 77.31" fill="none" stroke="#f4f8f3" stroke-miterlimit="10"/><path d="M55.5,74.46v4.89l.2,0a2.78,2.78,0,0,1,0,5.55l-.2,0v5.32l37-3.7V70.76Z" fill="none" stroke="#f4f8f3" stroke-miterlimit="10"/><circle cx="84.84" cy="77.94" r="2.31" fill="none" stroke="#f4f8f3" stroke-miterlimit="10"/><circle cx="77.44" cy="82.57" r="1.39" fill="none" stroke="#f4f8f3" stroke-miterlimit="10"/><circle cx="70.04" cy="78.87" r="1.39" fill="#f4f8f3"/><circle cx="64.49" cy="87.19" r="1.39" fill="none" stroke="#f4f8f3" stroke-miterlimit="10"/><circle cx="77.9" cy="63.61" r="1.85" fill="none" stroke="#f4f8f3" stroke-miterlimit="10"/><path d="M77.16,57.5l-7.3,5.65a1.81,1.81,0,0,1,.64,1.38,1.85,1.85,0,0,1-3.5.83l-11.5,8.9,37-3.7A17.74,17.74,0,0,0,77.16,57.5Z" fill="none" stroke="#f4f8f3" stroke-miterlimit="2"/></g></svg>