<svg xmlns="http://www.w3.org/2000/svg" width="148" height="148" viewBox="0 0 148 148"><g id="Icons"><circle cx="74" cy="74" r="54" fill="#333"/><path d="M74,71.17S67.29,68,67.29,61.68,74,50.09,74,50.09s6.71,5.27,6.71,11.59S74,71.17,74,71.17Z" fill="none" stroke="#f4f2f2" stroke-miterlimit="10"/><path d="M68.17,76.42s-7.23-1-8.71-6.6S63.21,57.9,63.21,57.9s7.72,2.89,9.21,8.45S68.17,76.42,68.17,76.42Z" fill="#333" stroke="#f4f2f2" stroke-miterlimit="10"/><path d="M79.83,76.42s7.23-1,8.71-6.6S84.79,57.9,84.79,57.9s-7.72,2.89-9.21,8.45S79.83,76.42,79.83,76.42Z" fill="#333" stroke="#f4f2f2" stroke-miterlimit="10"/><path d="M74,82.06s-8.63-3.31-8.63-9.92S74,60,74,60s8.63,5.51,8.63,12.13S74,82.06,74,82.06Z" fill="#333" stroke="#f4f2f2" stroke-miterlimit="10"/><path d="M67.55,88.31s-8.71,1.21-12-4.52,1-14.57,1-14.57,9.82.7,13.12,6.42S67.55,88.31,67.55,88.31Z" fill="#333" stroke="#f4f2f2" stroke-miterlimit="10"/><path d="M80.45,88.31s8.71,1.21,12-4.52-1-14.57-1-14.57-9.82.7-13.12,6.42S80.45,88.31,80.45,88.31Z" fill="#333" stroke="#f4f2f2" stroke-miterlimit="10"/><path d="M74,88.43s-7.19-2.88-7.19-8.63S74,69.26,74,69.26s7.19,4.79,7.19,10.54S74,88.43,74,88.43Z" fill="#333" stroke="#f4f2f2" stroke-miterlimit="10"/><path d="M75.44,95.62s-8.39,4.83-15.87-.4S50.5,79,50.5,79s10.86-2.25,18.34,3A15.64,15.64,0,0,1,75.44,95.62Z" fill="#333" stroke="#f4f2f2" stroke-miterlimit="10"/><path d="M72.58,96.45s8.37,4,15.85-1.23S97.5,79,97.5,79s-10.86-2.25-18.34,3S72.58,96.45,72.58,96.45Z" fill="#333" stroke="#f4f2f2" stroke-miterlimit="10"/><path d="M29.53,51.92l.6-1.16A49.84,49.84,0,0,1,63.51,25.61" fill="none" stroke="#f4f2f2" stroke-miterlimit="10"/><path d="M85,25.71A49.76,49.76,0,1,1,24.29,76.14" fill="none" stroke="#f4f2f2" stroke-miterlimit="10"/><path d="M70.58,24.62q1.69-.12,3.42-.12c1.15,0,2.3,0,3.43.12" fill="none" stroke="#f4f2f2" stroke-miterlimit="10"/><path d="M65,25.31c1.31-.24,2.65-.43,4-.56" fill="none" stroke="#f4f2f2" stroke-miterlimit="10"/><path d="M79,24.75c1.46.14,2.89.35,4.31.62" fill="none" stroke="#f4f2f2" stroke-miterlimit="10"/><path d="M24.27,74.25a49.55,49.55,0,0,1,4.4-20.49" fill="none" stroke="#f4f2f2" stroke-miterlimit="10"/><path d="M51.26,106a39.82,39.82,0,0,1-1.12-64" fill="none" stroke="#f4f2f2" stroke-miterlimit="10"/><path d="M96.74,106a39.82,39.82,0,0,0,1.12-64" fill="none" stroke="#f4f2f2" stroke-miterlimit="10"/><path d="M64.35,37a3.9,3.9,0,0,1-2.5,2.84c-2,.55-4.27-1-4.27-1s1.15-2.48,3.18-3A3.9,3.9,0,0,1,64.35,37Z" fill="none" stroke="#f4f2f2" stroke-miterlimit="10"/><line x1="64.35" y1="37.04" x2="57.58" y2="38.85" fill="none" stroke="#f4f2f2" stroke-miterlimit="10"/><path d="M83.65,37a3.9,3.9,0,0,0,2.5,2.84c2,.55,4.27-1,4.27-1s-1.15-2.48-3.18-3A3.9,3.9,0,0,0,83.65,37Z" fill="none" stroke="#f4f2f2" stroke-miterlimit="10"/><line x1="83.65" y1="37.04" x2="90.42" y2="38.85" fill="none" stroke="#f4f2f2" stroke-miterlimit="10"/><circle cx="74" cy="35.16" r="1.5" fill="#f4f2f2" stroke="#f4f2f2" stroke-miterlimit="10"/><path d="M81.11,107.15c0,3.35-3.4,6.07-7.59,6.07s-7.59-2.72-7.59-6.07" fill="none" stroke="#f4f2f2" stroke-miterlimit="10"/><path d="M65.93,107.27a1.94,1.94,0,0,1,3.79,0" fill="none" stroke="#f4f2f2" stroke-miterlimit="10"/><path d="M73.52,107.27a1.74,1.74,0,0,0-1.9-1.52,2.11,2.11,0,0,0-1.9,1.52c-.38.83-.38,4,1.14,5.57" fill="none" stroke="#f4f2f2" stroke-miterlimit="10"/><path d="M73.52,107.27a1.74,1.74,0,0,1,1.9-1.52,2.11,2.11,0,0,1,1.89,1.52c.38.83.38,4-1.14,5.57" fill="none" stroke="#f4f2f2" stroke-miterlimit="10"/><path d="M77.31,107.27a1.95,1.95,0,0,1,3.8,0" fill="none" stroke="#f4f2f2" stroke-miterlimit="10"/><line x1="73.52" y1="106.58" x2="73.52" y2="113.41" fill="none" stroke="#f4f2f2" stroke-miterlimit="10"/><path d="M68.41,115.75a7.67,7.67,0,0,0-9.36-4.4" fill="none" stroke="#f4f2f2" stroke-miterlimit="10"/><path d="M78.59,115.75a7.67,7.67,0,0,1,9.36-4.4" fill="none" stroke="#f4f2f2" stroke-miterlimit="10"/><polyline points="76.84 112.43 74.94 115.27 72.09 115.27 70.2 112.43" fill="none" stroke="#f4f2f2" stroke-miterlimit="10"/></g></svg>