<svg xmlns="http://www.w3.org/2000/svg" width="179" height="179" viewBox="0 0 179 179"><g id="Icons"><circle cx="89.84" cy="89.67" r="64" fill="none" stroke="#333" stroke-miterlimit="10" stroke-width="3"/><path d="M158,38.46l-1.25,7.38,7.66-.26-4,6.5,7,2.61-10.57,5a8.38,8.38,0,0,1-11.44-3.06h0a8.38,8.38,0,0,1,3.06-11.44Z" fill="#f4f8f3" stroke="#333" stroke-miterlimit="10" stroke-width="3"/><path d="M21.65,38.46l1.24,7.38-7.66-.26,4.06,6.5-7,2.61,10.57,5a8.37,8.37,0,0,0,11.43-3.06h0a8.37,8.37,0,0,0-3.06-11.44Z" fill="#f4f8f3" stroke="#333" stroke-miterlimit="10" stroke-width="3"/><path d="M105,9c0,6.71-6.79,12.15-15.18,12.15S74.66,15.74,74.66,9" fill="#f4f8f3" stroke="#333" stroke-miterlimit="10" stroke-width="3"/><path d="M74.66,9.27c0-1.68,1.7-3,3.8-3s3.79,1.36,3.79,3" fill="#f4f8f3" stroke="#333" stroke-miterlimit="10" stroke-width="3"/><path d="M89.84,9.27c0-1.68-1.7-3-3.79-3s-3.1,1.52-3.8,3-.76,8.11,2.28,11.15" fill="#f4f8f3" stroke="#333" stroke-miterlimit="10" stroke-width="3"/><path d="M89.84,9.27c0-1.68,1.7-3,3.8-3s3.09,1.52,3.79,3,.76,8.11-2.28,11.15" fill="#f4f8f3" stroke="#333" stroke-miterlimit="10" stroke-width="3"/><path d="M97.43,9.27c0-1.68,1.7-3,3.8-3s3.79,1.36,3.79,3" fill="#f4f8f3" stroke="#333" stroke-miterlimit="10" stroke-width="3"/><line x1="89.84" y1="7.89" x2="89.84" y2="21.56" fill="#f4f8f3" stroke="#333" stroke-miterlimit="10" stroke-width="3"/><polyline points="96.48 19.59 92.69 25.28 87 25.28 83.2 19.59" fill="none" stroke="#333" stroke-miterlimit="10" stroke-width="3"/><path d="M138.08,31.48c4.19-2.53,5.16-8.85,5.16-8.85s-5.73-2.29-9.91.23-5.15,8.86-5.15,8.86S133.9,34,138.08,31.48Z" fill="#f4f8f3" stroke="#333" stroke-miterlimit="10" stroke-width="3"/><path d="M128.07,19.73c0,5-4.87,9-4.87,9s-4.79-4-4.75-9,4.87-9,4.87-9S128.1,14.74,128.07,19.73Z" fill="#f4f8f3" stroke="#333" stroke-miterlimit="10" stroke-width="3"/><path d="M133.8,26c2.43-4.35.23-10.29.23-10.29s-6.1,1-8.53,5.35-.23,10.28-.23,10.28S131.36,30.38,133.8,26Z" fill="#f4f8f3" stroke="#333" stroke-miterlimit="10" stroke-width="3"/><polygon points="120.43 26.19 120.83 33.38 125.81 36.34 132.05 33.1 120.43 26.19" fill="#f4f8f3" stroke="#333" stroke-miterlimit="10" stroke-width="3"/><path d="M41.6,31.48c-4.18-2.53-5.15-8.85-5.15-8.85s5.72-2.29,9.9.23,5.16,8.86,5.16,8.86S45.78,34,41.6,31.48Z" fill="#f4f8f3" stroke="#333" stroke-miterlimit="10" stroke-width="3"/><path d="M51.62,19.73c0,5,4.87,9,4.87,9s4.78-4,4.75-9-4.87-9-4.87-9S51.58,14.74,51.62,19.73Z" fill="#f4f8f3" stroke="#333" stroke-miterlimit="10" stroke-width="3"/><path d="M45.89,26c-2.44-4.35-.24-10.29-.24-10.29s6.1,1,8.54,5.35.23,10.28.23,10.28S48.32,30.38,45.89,26Z" fill="#f4f8f3" stroke="#333" stroke-miterlimit="10" stroke-width="3"/><polygon points="59.25 26.19 58.85 33.38 53.88 36.34 47.63 33.1 59.25 26.19" fill="#f4f8f3" stroke="#333" stroke-miterlimit="10" stroke-width="3"/><path d="M158,140.54l-1.25-7.38,7.66.26-4-6.5,7-2.61-10.57-5a8.38,8.38,0,0,0-11.44,3.06h0a8.38,8.38,0,0,0,3.06,11.44Z" fill="#f4f8f3" stroke="#333" stroke-miterlimit="10" stroke-width="3"/><path d="M21.65,140.54l1.24-7.38-7.66.26,4.06-6.5-7-2.61,10.57-5a8.37,8.37,0,0,1,11.43,3.06h0a8.37,8.37,0,0,1-3.06,11.44Z" fill="#f4f8f3" stroke="#333" stroke-miterlimit="10" stroke-width="3"/><path d="M105,170c0-6.71-6.79-12.15-15.18-12.15S74.66,163.26,74.66,170" fill="#f4f8f3" stroke="#333" stroke-miterlimit="10" stroke-width="3"/><path d="M74.66,169.73c0,1.68,1.7,3,3.8,3s3.79-1.36,3.79-3" fill="#f4f8f3" stroke="#333" stroke-miterlimit="10" stroke-width="3"/><path d="M89.84,169.73c0,1.68-1.7,3-3.79,3s-3.1-1.52-3.8-3-.76-8.11,2.28-11.15" fill="#f4f8f3" stroke="#333" stroke-miterlimit="10" stroke-width="3"/><path d="M89.84,169.73c0,1.68,1.7,3,3.8,3s3.09-1.52,3.79-3,.76-8.11-2.28-11.15" fill="#f4f8f3" stroke="#333" stroke-miterlimit="10" stroke-width="3"/><path d="M97.43,169.73c0,1.68,1.7,3,3.8,3s3.79-1.36,3.79-3" fill="#f4f8f3" stroke="#333" stroke-miterlimit="10" stroke-width="3"/><line x1="89.84" y1="171.11" x2="89.84" y2="157.44" fill="#f4f8f3" stroke="#333" stroke-miterlimit="10" stroke-width="3"/><polyline points="96.48 159.41 92.69 153.72 87 153.72 83.2 159.41" fill="none" stroke="#333" stroke-miterlimit="10" stroke-width="3"/><path d="M138.08,147.52c4.19,2.53,5.16,8.85,5.16,8.85s-5.73,2.29-9.91-.23-5.15-8.86-5.15-8.86S133.9,145,138.08,147.52Z" fill="#f4f8f3" stroke="#333" stroke-miterlimit="10" stroke-width="3"/><path d="M128.07,159.27c0-5-4.87-9-4.87-9s-4.79,4-4.75,9,4.87,9,4.87,9S128.1,164.26,128.07,159.27Z" fill="#f4f8f3" stroke="#333" stroke-miterlimit="10" stroke-width="3"/><path d="M133.8,153c2.43,4.35.23,10.29.23,10.29s-6.1-1-8.53-5.35-.23-10.28-.23-10.28S131.36,148.62,133.8,153Z" fill="#f4f8f3" stroke="#333" stroke-miterlimit="10" stroke-width="3"/><polygon points="120.43 152.81 120.83 145.63 125.81 142.66 132.05 145.9 120.43 152.81" fill="#f4f8f3" stroke="#333" stroke-miterlimit="10" stroke-width="3"/><path d="M41.6,147.52c-4.18,2.53-5.15,8.85-5.15,8.85s5.72,2.29,9.9-.23,5.16-8.86,5.16-8.86S45.78,145,41.6,147.52Z" fill="#f4f8f3" stroke="#333" stroke-miterlimit="10" stroke-width="3"/><path d="M51.62,159.27c0-5,4.87-9,4.87-9s4.78,4,4.75,9-4.87,9-4.87,9S51.58,164.26,51.62,159.27Z" fill="#f4f8f3" stroke="#333" stroke-miterlimit="10" stroke-width="3"/><path d="M45.89,153c-2.44,4.35-.24,10.29-.24,10.29s6.1-1,8.54-5.35.23-10.28.23-10.28S48.32,148.62,45.89,153Z" fill="#f4f8f3" stroke="#333" stroke-miterlimit="10" stroke-width="3"/><polygon points="59.25 152.81 58.85 145.63 53.88 142.66 47.63 145.9 59.25 152.81" fill="#f4f8f3" stroke="#333" stroke-miterlimit="10" stroke-width="3"/><path d="M20.37,106.4c-2.07,4.42-8.26,6-8.26,6s-2.88-5.45-.8-9.87,8.26-6.06,8.26-6.06S22.45,102,20.37,106.4Z" fill="#f4f8f3" stroke="#333" stroke-miterlimit="10" stroke-width="3"/><path d="M20.19,72.19c-2.45-4.23-8.76-5.31-8.76-5.31s-2.39,5.68.06,9.91,8.76,5.31,8.76,5.31S22.64,76.42,20.19,72.19Z" fill="#f4f8f3" stroke="#333" stroke-miterlimit="10" stroke-width="3"/><path d="M5.29,71.65c8.76,0,15.85,8,15.85,17.84s-7.09,17.83-15.85,17.83" fill="#f4f8f3" stroke="#333" stroke-miterlimit="10" stroke-width="3"/><path d="M5.6,107.32a4.49,4.49,0,0,1,0-8.92" fill="#f4f8f3" stroke="#333" stroke-miterlimit="10" stroke-width="3"/><path d="M5.6,89.49a4.23,4.23,0,0,0-4,4.46c0,2.46,2,3.64,4,4.45,2.17.9,10.59.9,14.55-2.67" fill="#f4f8f3" stroke="#333" stroke-miterlimit="10" stroke-width="3"/><path d="M5.6,89.49a4.23,4.23,0,0,1-4-4.46c0-2.46,2-3.64,4-4.46,2.17-.89,10.59-.89,14.55,2.68" fill="#f4f8f3" stroke="#333" stroke-miterlimit="10" stroke-width="3"/><path d="M5.6,80.57a4.49,4.49,0,0,1,0-8.92" fill="#f4f8f3" stroke="#333" stroke-miterlimit="10" stroke-width="3"/><line x1="3.81" y1="89.49" x2="21.64" y2="89.49" fill="#f4f8f3" stroke="#333" stroke-miterlimit="10" stroke-width="3"/><polyline points="19.67 82.85 25.36 86.64 25.36 92.33 19.67 96.13" fill="none" stroke="#333" stroke-miterlimit="10" stroke-width="3"/><path d="M158.63,106.4c2.07,4.42,8.26,6,8.26,6s2.88-5.45.8-9.87-8.26-6.06-8.26-6.06S156.55,102,158.63,106.4Z" fill="#f4f8f3" stroke="#333" stroke-miterlimit="10" stroke-width="3"/><path d="M158.81,72.19c2.45-4.23,8.76-5.31,8.76-5.31s2.39,5.68-.06,9.91-8.76,5.31-8.76,5.31S156.36,76.42,158.81,72.19Z" fill="#f4f8f3" stroke="#333" stroke-miterlimit="10" stroke-width="3"/><path d="M173.71,71.65c-8.76,0-15.85,8-15.85,17.84s7.09,17.83,15.85,17.83" fill="#f4f8f3" stroke="#333" stroke-miterlimit="10" stroke-width="3"/><path d="M173.4,107.32a4.49,4.49,0,0,0,0-8.92" fill="#f4f8f3" stroke="#333" stroke-miterlimit="10" stroke-width="3"/><path d="M173.4,89.49a4.23,4.23,0,0,1,4,4.46c0,2.46-2,3.64-4,4.45-2.17.9-10.59.9-14.55-2.67" fill="#f4f8f3" stroke="#333" stroke-miterlimit="10" stroke-width="3"/><path d="M173.4,89.49a4.23,4.23,0,0,0,4-4.46c0-2.46-2-3.64-4-4.46-2.17-.89-10.59-.89-14.55,2.68" fill="#f4f8f3" stroke="#333" stroke-miterlimit="10" stroke-width="3"/><path d="M173.4,80.57a4.49,4.49,0,0,0,0-8.92" fill="#f4f8f3" stroke="#333" stroke-miterlimit="10" stroke-width="3"/><line x1="175.19" y1="89.49" x2="157.36" y2="89.49" fill="#f4f8f3" stroke="#333" stroke-miterlimit="10" stroke-width="3"/><polyline points="159.33 82.85 153.64 86.64 153.64 92.33 159.33 96.13" fill="none" stroke="#333" stroke-miterlimit="10" stroke-width="3"/></g></svg>