<svg class="c-season-info__icon" xmlns="http://www.w3.org/2000/svg" width="132" height="132" viewBox="0 0 132 132"><g><path d="M92.8,20.49s-4.18,6.22-8.75,14.06A338.43,338.43,0,0,0,66,4,338.43,338.43,0,0,0,48,34.55c-4.57-7.84-8.75-14.06-8.75-14.06S18.86,50.76,18.86,62A20.31,20.31,0,0,0,51.71,78a25.75,25.75,0,0,0,28.58,0,20.31,20.31,0,0,0,32.85-16C113.14,50.76,92.8,20.49,92.8,20.49Z" fill="var(--color-early-summer)" stroke="currentColor" stroke-miterlimit="10" stroke-width="4"/><rect x="17.04" y="64.83" width="14.84" height="62.31" transform="translate(-2.35 191.34) rotate(-150)" fill="var(--color-early-summer)" stroke="currentColor" stroke-miterlimit="10" stroke-width="4"/><rect x="100.12" y="64.83" width="14.84" height="62.31" transform="translate(-33.58 66.63) rotate(-30)" fill="var(--color-early-summer)" stroke="currentColor" stroke-miterlimit="10" stroke-width="4"/><rect x="79.35" y="64.83" width="14.84" height="62.31" transform="translate(-21.89 25.73) rotate(-15)" fill="var(--color-early-summer)" stroke="currentColor" stroke-miterlimit="10" stroke-width="4"/><rect x="37.81" y="64.83" width="14.84" height="62.31" transform="translate(64.07 200.41) rotate(-165)" fill="var(--color-early-summer)" stroke="currentColor" stroke-miterlimit="10" stroke-width="4"/><rect x="58.58" y="64.83" width="14.84" height="62.31" fill="var(--color-early-summer)" stroke="currentColor" stroke-miterlimit="10" stroke-width="4"/></g></svg>