<svg class="season-item__icon" xmlns="http://www.w3.org/2000/svg" width="132" height="132" viewBox="0 0 132 132"><g><path d="M52,27V70.57a14,14,0,0,0,28,0V27L66.51,41Z" fill="#f2f1f0" stroke="#f2f1f0" stroke-miterlimit="10"/><path d="M66,38.31C64.38,37.44,60.69,35,60.69,31c0-3.75,3.1-8.44,5.31-11.19,2.21,2.75,5.31,7.44,5.31,11.19C71.31,35.06,67.63,37.45,66,38.31Z" fill="#f2f1f0"/><path d="M66,23.18c1.71,2.49,3.32,5.53,3.32,7.85s-1.9,4-3.31,5c-1.41-.93-3.31-2.61-3.31-5s1.56-5.3,3.3-7.85m0-6.4S58.69,24.47,58.69,31,66,40.53,66,40.53s7.31-2.94,7.31-9.5S66,16.78,66,16.78Z" fill="#333"/><line x1="66" y1="39.61" x2="66" y2="128" fill="none" stroke="#333" stroke-miterlimit="10" stroke-width="4"/><line x1="66" y1="5" x2="66" y2="19" fill="none" stroke="#333" stroke-miterlimit="10" stroke-width="4"/><path d="M80,13V70.57a14,14,0,0,1-14,14h0a14,14,0,0,1-14-14V13" fill="none" stroke="#333" stroke-miterlimit="10" stroke-width="4"/><polyline points="80.61 25.92 66 40.53 51.39 25.92" fill="none" stroke="#333" stroke-miterlimit="10" stroke-width="4"/><polyline points="80.61 41.44 66 56.05 51.39 41.44" fill="none" stroke="#333" stroke-miterlimit="10" stroke-width="4"/><polyline points="80.61 56.96 66 71.57 51.39 56.96" fill="none" stroke="#333" stroke-miterlimit="10" stroke-width="4"/></g></svg>