<svg class="c-season-info__icon" xmlns="http://www.w3.org/2000/svg" width="132" height="132" viewBox="0 0 132 132"><g><path d="M66,59.62S50.85,52.47,50.85,38.19,66,12,66,12,81.15,23.9,81.15,38.19,66,59.62,66,59.62Z" fill="#f4f2f2" stroke="#333" stroke-miterlimit="10" stroke-width="4"/><path d="M52.84,71.46S36.52,69.11,33.16,56.57s8.47-26.92,8.47-26.92,17.44,6.53,20.8,19.08S52.84,71.46,52.84,71.46Z" fill="#f4f2f2" stroke="#333" stroke-miterlimit="10" stroke-width="4"/><path d="M79.16,71.46s16.32-2.35,19.68-14.89-8.47-26.92-8.47-26.92-17.44,6.53-20.8,19.08S79.16,71.46,79.16,71.46Z" fill="#f4f2f2" stroke="#333" stroke-miterlimit="10" stroke-width="4"/><path d="M66,84.19s-19.48-7.46-19.48-22.4S66,34.41,66,34.41,85.48,46.86,85.48,61.79,66,84.19,66,84.19Z" fill="#f4f2f2" stroke="#333" stroke-miterlimit="10" stroke-width="4"/><path d="M51.43,98.31s-19.67,2.74-27.13-10.2S26.54,55.2,26.54,55.2s22.15,1.58,29.62,14.51S51.43,98.31,51.43,98.31Z" fill="#f4f2f2" stroke="#333" stroke-miterlimit="10" stroke-width="4"/><path d="M80.57,98.31s19.67,2.74,27.13-10.2-2.24-32.91-2.24-32.91S83.31,56.78,75.84,69.71,80.57,98.31,80.57,98.31Z" fill="#f4f2f2" stroke="#333" stroke-miterlimit="10" stroke-width="4"/><path d="M66,98.58S49.77,92.08,49.77,79.1,66,55.29,66,55.29,82.23,66.11,82.23,79.1,66,98.58,66,98.58Z" fill="#f4f2f2" stroke="#333" stroke-miterlimit="10" stroke-width="4"/><path d="M69.25,114.81s-19,10.92-35.83-.9S12.94,77.3,12.94,77.3,37.47,72.2,54.35,84,69.25,114.81,69.25,114.81Z" fill="#f4f2f2" stroke="#333" stroke-miterlimit="10" stroke-width="4"/><path d="M62.79,116.7s18.91,9,35.79-2.79S119.06,77.3,119.06,77.3,94.53,72.2,77.65,84,62.79,116.7,62.79,116.7Z" fill="#f4f2f2" stroke="#333" stroke-miterlimit="10" stroke-width="4"/></g></svg>