<svg class="c-season-info__icon" aria-hidden="true" focusable="false" xmlns="http://www.w3.org/2000/svg" width="132" height="132" viewBox="0 0 132 132"><g><circle cx="66.25" cy="66.12" r="46.62" fill="none" stroke="currentColor" stroke-miterlimit="10" stroke-width="3"/><path d="M115.92,28.82,115,34.2,120.6,34l-3,4.74,5.11,1.9-7.7,3.6A6.09,6.09,0,0,1,106.72,42h0A6.09,6.09,0,0,1,109,33.69Z" fill="var(--color-late-spring)" stroke="currentColor" stroke-miterlimit="10" stroke-width="3"/><path d="M16.58,28.82l.9,5.38L11.9,34l3,4.74-5.11,1.9,7.7,3.6A6.09,6.09,0,0,0,25.78,42h0a6.1,6.1,0,0,0-2.23-8.33Z" fill="var(--color-late-spring)" stroke="currentColor" stroke-miterlimit="10" stroke-width="3"/><path d="M77.31,7.39c0,4.88-5,8.84-11.06,8.84s-11.06-4-11.06-8.84" fill="var(--color-late-spring)" stroke="currentColor" stroke-miterlimit="10" stroke-width="3"/><path d="M55.19,7.56a2.83,2.83,0,0,1,5.53,0" fill="var(--color-late-spring)" stroke="currentColor" stroke-miterlimit="10" stroke-width="3"/><path d="M66.25,7.56a2.53,2.53,0,0,0-2.76-2.21c-1.53,0-2.26,1.1-2.77,2.21s-.55,5.91,1.66,8.12" fill="var(--color-late-spring)" stroke="currentColor" stroke-miterlimit="10" stroke-width="3"/><path d="M66.25,7.56A2.53,2.53,0,0,1,69,5.35c1.53,0,2.26,1.1,2.77,2.21s.55,5.91-1.66,8.12" fill="var(--color-late-spring)" stroke="currentColor" stroke-miterlimit="10" stroke-width="3"/><path d="M71.78,7.56a2.83,2.83,0,0,1,5.53,0" fill="var(--color-late-spring)" stroke="currentColor" stroke-miterlimit="10" stroke-width="3"/><line x1="66.25" y1="6.56" x2="66.25" y2="16.51" fill="var(--color-late-spring)" stroke="currentColor" stroke-miterlimit="10" stroke-width="3"/><polyline points="71.09 15.07 68.32 19.22 64.18 19.22 61.41 15.07" fill="currentColor" stroke="currentColor" stroke-miterlimit="10" stroke-width="3"/><path d="M101.39,23.74c3-1.84,3.75-6.45,3.75-6.45s-4.17-1.67-7.21.17-3.76,6.45-3.76,6.45S98.34,25.58,101.39,23.74Z" fill="var(--color-late-spring)" stroke="currentColor" stroke-miterlimit="10" stroke-width="3"/><path d="M94.09,15.18c0,3.64-3.54,6.57-3.54,6.57s-3.49-2.88-3.46-6.52,3.54-6.57,3.54-6.57S94.12,11.54,94.09,15.18Z" fill="var(--color-late-spring)" stroke="currentColor" stroke-miterlimit="10" stroke-width="3"/><path d="M98.27,19.77c1.77-3.16.17-7.49.17-7.49S94,13,92.22,16.18s-.17,7.49-.17,7.49S96.49,22.93,98.27,19.77Z" fill="var(--color-late-spring)" stroke="currentColor" stroke-miterlimit="10" stroke-width="3"/><polygon points="88.53 19.89 88.82 25.12 92.45 27.27 96.99 24.92 88.53 19.89" fill="currentColor" stroke="currentColor" stroke-miterlimit="10" stroke-width="3"/><path d="M31.11,23.74c-3.05-1.84-3.75-6.45-3.75-6.45s4.16-1.67,7.21.17,3.75,6.45,3.75,6.45S34.16,25.58,31.11,23.74Z" fill="var(--color-late-spring)" stroke="currentColor" stroke-miterlimit="10" stroke-width="3"/><path d="M38.4,15.18c0,3.64,3.55,6.57,3.55,6.57s3.49-2.88,3.46-6.52-3.55-6.57-3.55-6.57S38.38,11.54,38.4,15.18Z" fill="var(--color-late-spring)" stroke="currentColor" stroke-miterlimit="10" stroke-width="3"/><path d="M34.23,19.77c-1.77-3.16-.17-7.49-.17-7.49s4.44.73,6.22,3.9.17,7.49.17,7.49S36,22.93,34.23,19.77Z" fill="var(--color-late-spring)" stroke="currentColor" stroke-miterlimit="10" stroke-width="3"/><polygon points="43.97 19.89 43.68 25.12 40.05 27.27 35.51 24.92 43.97 19.89" fill="currentColor" stroke="currentColor" stroke-miterlimit="10" stroke-width="3"/><path d="M115.92,103.18,115,97.8l5.58.19-3-4.74,5.11-1.9-7.7-3.6A6.09,6.09,0,0,0,106.72,90h0A6.09,6.09,0,0,0,109,98.31Z" fill="var(--color-late-spring)" stroke="currentColor" stroke-miterlimit="10" stroke-width="3"/><path d="M16.58,103.18l.9-5.38L11.9,98l3-4.74-5.11-1.9,7.7-3.6A6.09,6.09,0,0,1,25.78,90h0a6.1,6.1,0,0,1-2.23,8.33Z" fill="var(--color-late-spring)" stroke="currentColor" stroke-miterlimit="10" stroke-width="3"/><path d="M77.31,124.61c0-4.88-5-8.84-11.06-8.84s-11.06,4-11.06,8.84" fill="var(--color-late-spring)" stroke="currentColor" stroke-miterlimit="10" stroke-width="3"/><path d="M55.19,124.44a2.83,2.83,0,0,0,5.53,0" fill="var(--color-late-spring)" stroke="currentColor" stroke-miterlimit="10" stroke-width="3"/><path d="M66.25,124.44a2.53,2.53,0,0,1-2.76,2.21c-1.53,0-2.26-1.1-2.77-2.21s-.55-5.91,1.66-8.12" fill="var(--color-late-spring)" stroke="currentColor" stroke-miterlimit="10" stroke-width="3"/><path d="M66.25,124.44A2.53,2.53,0,0,0,69,126.65c1.53,0,2.26-1.1,2.77-2.21s.55-5.91-1.66-8.12" fill="var(--color-late-spring)" stroke="currentColor" stroke-miterlimit="10" stroke-width="3"/><path d="M71.78,124.44a2.83,2.83,0,0,0,5.53,0" fill="var(--color-late-spring)" stroke="currentColor" stroke-miterlimit="10" stroke-width="3"/><line x1="66.25" y1="125.44" x2="66.25" y2="115.49" fill="var(--color-late-spring)" stroke="currentColor" stroke-miterlimit="10" stroke-width="3"/><polyline points="71.09 116.93 68.32 112.78 64.18 112.78 61.41 116.93" fill="currentColor" stroke="currentColor" stroke-miterlimit="10" stroke-width="3"/><path d="M101.39,108.26c3,1.84,3.75,6.45,3.75,6.45s-4.17,1.67-7.21-.17-3.76-6.45-3.76-6.45S98.34,106.42,101.39,108.26Z" fill="var(--color-late-spring)" stroke="currentColor" stroke-miterlimit="10" stroke-width="3"/><path d="M94.09,116.82c0-3.64-3.54-6.57-3.54-6.57s-3.49,2.88-3.46,6.52,3.54,6.57,3.54,6.57S94.12,120.46,94.09,116.82Z" fill="var(--color-late-spring)" stroke="currentColor" stroke-miterlimit="10" stroke-width="3"/><path d="M98.27,112.23c1.77,3.16.17,7.49.17,7.49s-4.44-.73-6.22-3.9-.17-7.49-.17-7.49S96.49,109.07,98.27,112.23Z" fill="var(--color-late-spring)" stroke="currentColor" stroke-miterlimit="10" stroke-width="3"/><polygon points="88.53 112.11 88.82 106.88 92.45 104.72 96.99 107.08 88.53 112.11" fill="currentColor" stroke="currentColor" stroke-miterlimit="10" stroke-width="3"/><path d="M31.11,108.26c-3.05,1.84-3.75,6.45-3.75,6.45s4.16,1.67,7.21-.17,3.75-6.45,3.75-6.45S34.16,106.42,31.11,108.26Z" fill="var(--color-late-spring)" stroke="currentColor" stroke-miterlimit="10" stroke-width="3"/><path d="M38.4,116.82c0-3.64,3.55-6.57,3.55-6.57s3.49,2.88,3.46,6.52-3.55,6.57-3.55,6.57S38.38,120.46,38.4,116.82Z" fill="var(--color-late-spring)" stroke="currentColor" stroke-miterlimit="10" stroke-width="3"/><path d="M34.23,112.23c-1.77,3.16-.17,7.49-.17,7.49s4.44-.73,6.22-3.9.17-7.49.17-7.49S36,109.07,34.23,112.23Z" fill="var(--color-late-spring)" stroke="currentColor" stroke-miterlimit="10" stroke-width="3"/><polygon points="43.97 112.11 43.68 106.88 40.05 104.72 35.51 107.08 43.97 112.11" fill="currentColor" stroke="currentColor" stroke-miterlimit="10" stroke-width="3"/><path d="M15.65,78.31c-1.51,3.22-6,4.41-6,4.41s-2.1-4-.59-7.19,6-4.41,6-4.41S17.16,75.09,15.65,78.31Z" fill="var(--color-late-spring)" stroke="currentColor" stroke-miterlimit="10" stroke-width="3"/><path d="M15.51,53.39c-1.78-3.08-6.38-3.87-6.38-3.87s-1.74,4.14,0,7.22,6.38,3.87,6.38,3.87S17.3,56.47,15.51,53.39Z" fill="var(--color-late-spring)" stroke="currentColor" stroke-miterlimit="10" stroke-width="3"/><path d="M4.66,53C11,53,16.21,58.82,16.21,66S11,79,4.66,79" fill="var(--color-late-spring)" stroke="currentColor" stroke-miterlimit="10" stroke-width="3"/><path d="M4.89,79a3.27,3.27,0,0,1,0-6.49" fill="var(--color-late-spring)" stroke="currentColor" stroke-miterlimit="10" stroke-width="3"/><path d="M4.89,66A3.09,3.09,0,0,0,2,69.24C2,71,3.44,71.89,4.89,72.49s7.71.65,10.6-1.95" fill="var(--color-late-spring)" stroke="currentColor" stroke-miterlimit="10" stroke-width="3"/><path d="M4.89,66A3.08,3.08,0,0,1,2,62.74C2,61,3.44,60.09,4.89,59.5s7.71-.65,10.6,1.94" fill="var(--color-late-spring)" stroke="currentColor" stroke-miterlimit="10" stroke-width="3"/><path d="M4.89,59.5a3.27,3.27,0,0,1,0-6.5" fill="var(--color-late-spring)" stroke="currentColor" stroke-miterlimit="10" stroke-width="3"/><line x1="3.58" y1="65.99" x2="16.57" y2="65.99" fill="var(--color-late-spring)" stroke="currentColor" stroke-miterlimit="10" stroke-width="3"/><polyline points="15.13 61.15 19.28 63.92 19.28 68.06 15.13 70.83" fill="currentColor" stroke="currentColor" stroke-miterlimit="10" stroke-width="3"/><path d="M116.35,78.31c1.51,3.22,6,4.41,6,4.41s2.1-4,.59-7.19-6-4.41-6-4.41S114.84,75.09,116.35,78.31Z" fill="var(--color-late-spring)" stroke="currentColor" stroke-miterlimit="10" stroke-width="3"/><path d="M116.49,53.39c1.78-3.08,6.38-3.87,6.38-3.87s1.74,4.14-.05,7.22-6.38,3.87-6.38,3.87S114.7,56.47,116.49,53.39Z" fill="var(--color-late-spring)" stroke="currentColor" stroke-miterlimit="10" stroke-width="3"/><path d="M127.34,53c-6.38,0-11.55,5.82-11.55,13S121,79,127.34,79" fill="var(--color-late-spring)" stroke="currentColor" stroke-miterlimit="10" stroke-width="3"/><path d="M127.11,79a3.27,3.27,0,0,0,0-6.49" fill="var(--color-late-spring)" stroke="currentColor" stroke-miterlimit="10" stroke-width="3"/><path d="M127.11,66A3.09,3.09,0,0,1,130,69.24c0,1.79-1.44,2.65-2.89,3.25s-7.71.65-10.6-1.95" fill="var(--color-late-spring)" stroke="currentColor" stroke-miterlimit="10" stroke-width="3"/><path d="M127.11,66A3.08,3.08,0,0,0,130,62.74c0-1.79-1.44-2.65-2.89-3.24s-7.71-.65-10.6,1.94" fill="var(--color-late-spring)" stroke="currentColor" stroke-miterlimit="10" stroke-width="3"/><path d="M127.11,59.5a3.27,3.27,0,0,0,0-6.5" fill="var(--color-late-spring)" stroke="currentColor" stroke-miterlimit="10" stroke-width="3"/><line x1="128.42" y1="65.99" x2="115.43" y2="65.99" fill="var(--color-late-spring)" stroke="currentColor" stroke-miterlimit="10" stroke-width="3"/><polyline points="116.86 61.15 112.72 63.92 112.72 68.06 116.86 70.83" fill="currentColor" stroke="currentColor" stroke-miterlimit="10" stroke-width="3"/></g></svg>