<svg class="season-item__icon" xmlns="http://www.w3.org/2000/svg" width="132" height="132" viewBox="0 0 132 132"><g><polyline points="61.59 26.36 63.25 12 68.75 12 70.41 26.36" fill="#f2f0f1" stroke="#333" stroke-miterlimit="10" stroke-width="4"/><path d="M62.07,70.22c0,26-5.33,47.16-24.89,47.16S9.67,96.26,9.67,70.22s8-47.17,27.51-47.17S62.07,44.17,62.07,70.22Z" fill="#f2f0f1" stroke="#333" stroke-miterlimit="10" stroke-width="4"/><ellipse cx="52.9" cy="71.53" rx="24.89" ry="47.16" fill="#f2f0f1" stroke="#333" stroke-miterlimit="10" stroke-width="4"/><path d="M69.93,70.22c0,26,5.33,47.16,24.89,47.16s27.51-21.12,27.51-47.16-8-47.17-27.51-47.17S69.93,44.17,69.93,70.22Z" fill="#f2f0f1" stroke="#333" stroke-miterlimit="10" stroke-width="4"/><ellipse cx="79.1" cy="71.53" rx="24.89" ry="47.16" fill="#f2f0f1" stroke="#333" stroke-miterlimit="10" stroke-width="4"/><ellipse cx="66" cy="72.84" rx="17.03" ry="47.16" fill="#f2f0f1" stroke="#333" stroke-miterlimit="10" stroke-width="4"/></g></svg>