<svg class="c-season-info__icon" xmlns="http://www.w3.org/2000/svg" width="132" height="132" viewBox="0 0 132 132"><g><path d="M89.35,23.52s-3.64,5.42-7.62,12.24A294.17,294.17,0,0,0,66,9.17,295.32,295.32,0,0,0,50.3,35.76c-4-6.82-7.62-12.24-7.62-12.24S25,49.87,25,59.66A17.69,17.69,0,0,0,53.58,73.6a22.39,22.39,0,0,0,24.87,0,17.69,17.69,0,0,0,28.61-13.94C107.06,49.87,89.35,23.52,89.35,23.52Z" fill="var(--color-early-winter)" stroke="currentColor" stroke-miterlimit="10" stroke-width="4"/><rect x="11" y="70.09" width="110" height="35.81" fill="var(--color-early-winter)" stroke="currentColor" stroke-miterlimit="10" stroke-width="4"/><line x1="31" y1="79" x2="31" y2="122.92" fill="none" stroke="currentColor" stroke-miterlimit="10" stroke-width="4"/><line x1="101" y1="79" x2="101" y2="122.92" fill="none" stroke="currentColor" stroke-miterlimit="10" stroke-width="4"/><line x1="4" y1="121" x2="128" y2="121" fill="none" stroke="currentColor" stroke-miterlimit="10" stroke-width="4"/></g></svg>