<svg class="c-season-info__icon" focusable="false" xmlns="http://www.w3.org/2000/svg" width="132" height="132" viewBox="0 0 132 132"><g><path d="M79.9,31.24a13.9,13.9,0,0,1-27.8,0C52.1,23.57,66,4,66,4S79.9,23.57,79.9,31.24Z" fill="var(--color-late-winter)" stroke="currentColor" stroke-miterlimit="10" stroke-width="4"/><path d="M73.53,37.61a7.53,7.53,0,0,1-15.06,0c0-4.16,7.53-14.75,7.53-14.75S73.53,33.45,73.53,37.61Z" fill="none" stroke="currentColor" stroke-miterlimit="10" stroke-width="4"/><line x1="66" y1="34.91" x2="66" y2="53.76" fill="none" stroke="currentColor" stroke-miterlimit="10" stroke-width="4"/><path d="M54,110V60a5,5,0,0,1,4.92-5H73.08A5,5,0,0,1,78,60v50" fill="var(--color-late-winter)" stroke="currentColor" stroke-miterlimit="10" stroke-width="4"/><path d="M89,128H43L32.41,115a1.82,1.82,0,0,1,1.39-3H98.2a1.82,1.82,0,0,1,1.39,3Z" fill="var(--color-late-winter)" stroke="currentColor" stroke-miterlimit="10" stroke-width="4"/></g></svg>