<svg width="32" height="32" viewBox="0 0 32 32" fill="none" xmlns="http://www.w3.org/2000/svg">
<style>@media (prefers-color-scheme:dark){circle{stroke:#fff;}path{fill:#fff;}} @media (forced-colors:active){svg{background:Canvas}circle{stroke:CanvasText}path{fill:CanvasText}}</style>
<circle cx="16" cy="16" r="14.466" stroke="black" stroke-width="1.06804"/>
<circle cx="15.9999" cy="16" r="11.3978" stroke="black" stroke-width="1.06804"/>
<path d="M20.6861 13.1981C20.8228 13.1297 20.8741 13.0443 20.8741 12.9418C20.8741 12.8734 20.857 12.8051 20.8228 12.7025L19.6095 9.64366C19.5412 9.45569 19.4044 9.37025 19.1994 9.37025H18.5671C18.362 9.37025 18.2595 9.45569 18.2595 9.60949C18.2595 9.66075 18.2766 9.71202 18.2937 9.78037C18.362 10.0367 18.3962 10.2759 18.2595 10.2759C18.2253 10.2759 18.1912 10.2759 18.157 10.2418C17.7298 10.0025 16.4823 9.45569 15.2177 9.45569C12.5861 9.45569 10.9114 10.6519 10.9114 12.5658C10.9114 13.8987 11.4924 15.5392 15.4228 16.7184C17.2684 17.2652 19.0798 17.5044 19.0798 19.2646C19.0798 20.2899 18.2424 21.0589 16.7557 21.0589C14.7905 21.0589 12.8595 19.931 11.3044 17.5728C11.2361 17.4361 11.1336 17.3848 11.0139 17.3848C10.9627 17.3848 10.8943 17.4019 10.8089 17.4361L10.0741 17.8804C9.93735 17.9487 9.88608 18.0513 9.88608 18.1538C9.88608 18.2222 9.90317 18.2905 9.93735 18.3589L12.0051 22.238C12.1076 22.4089 12.2443 22.4772 12.4323 22.4772H13.3038C13.4918 22.4943 13.5772 22.426 13.5772 22.2892C13.5772 22.238 13.5601 22.1696 13.543 22.0842C13.4747 21.8791 13.5089 21.7253 13.6627 21.7253C13.7139 21.7253 13.7823 21.7595 13.8677 21.7937C14.7051 22.2038 15.6791 22.4089 16.6703 22.4089C19.7975 22.4089 21.626 20.7513 21.626 18.5127C21.626 15.9323 18.9089 15.0608 16.2943 14.3089C14.9956 13.9158 13.6114 13.369 13.6114 12.3095C13.6114 11.1133 14.5855 10.8399 15.4399 10.8399C16.6019 10.8399 18.157 11.5576 19.6095 13.369C19.712 13.4886 19.7975 13.557 19.9171 13.557C19.9684 13.557 20.0367 13.5399 20.1051 13.5057L20.6861 13.1981Z" fill="black"/>
</svg>